HIERARCHY
ROOT Hips
{
	OFFSET -0.001795 -0.223333 0.028219
	CHANNELS 6 Xposition Yposition Zposition Zrotation Yrotation Xrotation 
	JOINT LeftUpLeg
	{
		OFFSET 0.069520 -0.091406 -0.006815
		CHANNELS 3 Zrotation Yrotation Xrotation
		JOINT LeftLeg
		{
			OFFSET 0.034277 -0.375199 -0.004496
			CHANNELS 3 Zrotation Yrotation Xrotation
			JOINT LeftFoot
			{
				OFFSET -0.013596 -0.397961 -0.043693
				CHANNELS 3 Zrotation Yrotation Xrotation
				JOINT LeftToe
				{
					OFFSET 0.026358 -0.055791 0.119288
					CHANNELS 3 Zrotation Yrotation Xrotation
					End Site
					{
						OFFSET 0.000000 0.000000 0.000000
					}
				}
			}
		}
	}
	JOINT RightUpLeg
	{
		OFFSET -0.067670 -0.090522 -0.004320
		CHANNELS 3 Zrotation Yrotation Xrotation
		JOINT RightLeg
		{
			OFFSET -0.038290 -0.382569 -0.008850
			CHANNELS 3 Zrotation Yrotation Xrotation
			JOINT RightFoot
			{
				OFFSET 0.015774 -0.398415 -0.042312
				CHANNELS 3 Zrotation Yrotation Xrotation
				JOINT RightToe
				{
					OFFSET -0.025372 -0.048144 0.123348
					CHANNELS 3 Zrotation Yrotation Xrotation
					End Site
					{
						OFFSET 0.000000 0.000000 0.000000
					}
				}
			}
		}
	}
	JOINT Spine
	{
		OFFSET -0.002533 0.108963 -0.026696
		CHANNELS 3 Zrotation Yrotation Xrotation
		JOINT Spine1
		{
			OFFSET 0.005487 0.135180 0.001092
			CHANNELS 3 Zrotation Yrotation Xrotation
			JOINT Spine2
			{
				OFFSET 0.001457 0.052922 0.025425
				CHANNELS 3 Zrotation Yrotation Xrotation
				JOINT Neck
				{
					OFFSET -0.002778 0.213870 -0.042857
					CHANNELS 3 Zrotation Yrotation Xrotation
					JOINT Head
					{
						OFFSET 0.005152 0.064970 0.051349
						CHANNELS 3 Zrotation Yrotation Xrotation
						End Site
						{
							OFFSET 0.000000 0.000000 0.000000
						}
					}
				}
				JOINT LeftShoulder
				{
					OFFSET 0.078845 0.121749 -0.034090
					CHANNELS 3 Zrotation Yrotation Xrotation
					JOINT LeftArm
					{
						OFFSET 0.090977 0.030469 -0.008868
						CHANNELS 3 Zrotation Yrotation Xrotation
						JOINT LeftForeArm
						{
							OFFSET 0.259612 -0.012772 -0.027456
							CHANNELS 3 Zrotation Yrotation Xrotation
							JOINT LeftHand
							{
								OFFSET 0.249234 0.008986 -0.001171
								CHANNELS 3 Zrotation Yrotation Xrotation
								End Site
								{
									OFFSET 0.000000 0.000000 0.000000
								}
							}
						}
					}
				}
				JOINT RightShoulder
				{
					OFFSET -0.081759 0.118833 -0.038615
					CHANNELS 3 Zrotation Yrotation Xrotation
					JOINT RightArm
					{
						OFFSET -0.096012 0.032551 -0.009143
						CHANNELS 3 Zrotation Yrotation Xrotation
						JOINT RightForeArm
						{
							OFFSET -0.253742 -0.013329 -0.021401
							CHANNELS 3 Zrotation Yrotation Xrotation
							JOINT RightHand
							{
								OFFSET -0.255298 0.007772 -0.005559
								CHANNELS 3 Zrotation Yrotation Xrotation
								End Site
								{
									OFFSET 0.000000 0.000000 0.000000
								}
							}
						}
					}
				}
			}
		}
	}
}
MOTION
Frames: 8
Frame Time: 0.050000
0.081731 0.952735 0.312053 -1.726545 -22.466131 8.967851 7.750173 0.080697 -8.543836 -6.738334 1.377254 4.762786 13.725797 24.665154 13.773805 0.000000 0.000000 0.000000 -8.540726 1.773101 -18.857015 3.678300 0.050905 8.022952 3.357105 -1.960206 12.648205 0.000000 0.000000 0.000000 9.870740 -2.107113 26.184486 -0.473136 0.033933 -16.652186 -1.421584 -3.579200 24.275449 17.174137 -12.168446 -15.861028 0.000000 0.000000 0.000000 -2.497126 -25.619346 10.955695 -19.747212 -25.061282 0.075489 49.089427 -70.261903 -28.306658 0.000000 0.000000 0.000000 27.031093 14.583823 0.745244 41.045208 28.897829 5.328323 16.644304 58.142268 8.881483 0.000000 0.000000 0.000000 
0.081825 0.952552 0.311901 -1.562611 -21.921705 8.797560 7.861212 0.076311 -8.355952 -6.627955 1.290669 4.009517 13.713609 24.566897 14.231512 0.000000 0.000000 0.000000 -8.848332 1.723271 -18.735161 3.791878 0.037190 8.242807 3.038716 -2.287767 12.339161 0.000000 0.000000 0.000000 10.319215 -2.251807 26.332621 -1.029607 0.217954 -17.202850 -1.007726 -3.396257 24.446600 17.263093 -12.173115 -16.142883 0.000000 0.000000 0.000000 -2.980324 -25.531640 11.043127 -19.290640 -24.856211 -0.045863 51.046291 -70.591994 -30.085958 0.000000 0.000000 0.000000 26.932234 14.611474 1.016749 41.756114 29.367117 5.502559 19.221939 57.976311 10.381205 0.000000 0.000000 0.000000 
0.081695 0.952358 0.312039 -1.443996 -21.262843 8.644648 8.012990 0.074676 -8.002355 -6.434011 1.203915 3.475204 13.403380 24.066345 14.469383 0.000000 0.000000 0.000000 -8.829060 1.681374 -18.556322 3.824273 0.019497 8.186932 2.656343 -2.837506 12.177829 0.000000 0.000000 0.000000 10.462252 -2.328686 26.229486 -1.294801 0.305183 -16.918844 -0.854577 -3.076620 24.195474 17.627001 -12.413401 -15.816284 0.000000 0.000000 0.000000 -3.530290 -25.402509 11.111651 -18.909658 -24.239357 -0.194282 53.386663 -71.628614 -32.647027 0.000000 0.000000 0.000000 27.299588 14.706322 1.333121 42.701803 29.874165 5.808136 20.247923 57.706882 11.056578 0.000000 0.000000 0.000000 
0.081354 0.952037 0.312305 -1.325093 -20.499080 8.597732 8.205602 0.072018 -7.580121 -6.373936 1.121000 2.398934 13.358583 23.971030 14.839107 0.000000 0.000000 0.000000 -8.847603 1.643405 -18.452786 3.614919 0.031336 8.175592 2.490140 -2.948657 11.991622 0.000000 0.000000 0.000000 10.905583 -2.490344 26.351071 -1.752121 0.464858 -17.479263 -0.470851 -2.829807 24.295935 17.892066 -12.600036 -15.678687 0.000000 0.000000 0.000000 -4.145429 -25.223063 11.190771 -18.807999 -23.360977 -0.376387 57.104377 -73.704265 -36.971166 0.000000 0.000000 0.000000 27.388689 14.660064 1.583138 43.741621 30.152113 6.007099 21.773583 57.145575 11.912094 0.000000 0.000000 0.000000 
0.081150 0.951639 0.312557 -1.117995 -19.836455 8.710268 8.238590 0.053319 -7.458514 -6.148613 1.037452 1.775919 13.303018 23.822826 15.321401 0.000000 0.000000 0.000000 -8.988913 1.614601 -18.451041 3.582198 0.011803 7.864348 2.147894 -3.605054 12.134285 0.000000 0.000000 0.000000 11.163077 -2.599965 26.246956 -1.950117 0.537234 -17.408889 -0.312690 -2.131385 24.085377 18.549224 -12.863714 -15.930825 0.000000 0.000000 0.000000 -4.043665 -25.029038 10.966451 -19.171297 -22.858095 -0.421514 62.829271 -75.591977 -43.098664 0.000000 0.000000 0.000000 27.669572 14.793876 2.092322 44.529303 31.104381 6.419779 20.966317 56.760262 11.648481 0.000000 0.000000 0.000000 
0.081271 0.951274 0.312708 -0.983279 -19.193115 8.794575 8.316454 0.041999 -7.392842 -5.978225 0.974370 1.244772 13.193699 23.619613 15.681742 0.000000 0.000000 0.000000 -9.072404 1.597753 -18.567815 3.339911 0.030703 7.845288 2.115524 -3.539404 12.053071 0.000000 0.000000 0.000000 11.509568 -2.729050 26.214607 -2.177901 0.621937 -17.801829 0.054838 -1.507774 24.135645 19.070467 -13.196568 -15.715284 0.000000 0.000000 0.000000 -3.546714 -24.994449 10.696361 -19.577579 -22.852144 -0.403942 67.827362 -76.936848 -48.452842 0.000000 0.000000 0.000000 27.888990 14.852013 2.522092 45.028916 31.874136 6.708804 20.593339 56.050180 11.514395 0.000000 0.000000 0.000000 
0.081877 0.950932 0.312962 -0.674739 -18.701614 9.027486 8.033333 -0.005473 -7.636416 -5.808740 0.927111 0.990686 12.936626 23.274417 15.601998 0.000000 0.000000 0.000000 -9.442342 1.582635 -18.824897 3.330265 0.023278 7.820271 1.854498 -3.924009 11.972856 0.000000 0.000000 0.000000 11.761997 -2.816409 25.910591 -2.319144 0.676256 -17.946179 0.376642 -0.722391 24.062484 19.642106 -13.415734 -16.023749 0.000000 0.000000 0.000000 -3.293882 -25.335733 10.660711 -19.573521 -23.550472 -0.306376 70.155696 -77.596515 -51.247915 0.000000 0.000000 0.000000 27.985755 15.110545 3.133875 45.498837 33.084913 7.161156 18.298290 54.736433 10.273580 0.000000 0.000000 0.000000 
0.082917 0.950632 0.313454 -0.375894 -18.021133 9.113459 7.839335 -0.045347 -7.837618 -5.733805 0.897822 0.832981 12.802268 23.079457 15.787540 0.000000 0.000000 0.000000 -9.819588 1.546974 -18.984878 3.214758 0.032538 7.947848 1.469395 -4.565571 11.965406 0.000000 0.000000 0.000000 12.128834 -2.921498 25.374647 -2.255156 0.673267 -17.948953 0.795751 -0.098098 23.909711 20.065674 -13.475482 -16.555833 0.000000 0.000000 0.000000 -2.625737 -25.810294 10.549373 -19.346272 -24.829592 -0.131257 66.197569 -77.891047 -48.230391 0.000000 0.000000 0.000000 27.839849 15.181014 3.607610 45.707075 34.290168 7.566923 16.197825 53.068780 9.076965 0.000000 0.000000 0.000000 
